[Header]
FileType HTR
DataType HTRS
FileVersion 1
NumSegments 64
NumFrames 3
DataFrameRate 30
EulerRotationOrder ZYX
CalibrationUnits mm
RotationUnits Degrees
GlobalAxisofGravity Y
BoneLengthAxis Y
ScaleFactor 1.0
[SegmentNames&Hierarchy]
Hips	GLOBAL
Spine	Hips
Spine1	Spine
Spine2	Spine1
Neck	Spine2
Head	Neck
LeftEye	Head
RightEye	Head
LeftShoulder	Spine2
LeftArm	LeftShoulder
LeftForeArm	LeftArm
LeftHand	LeftForeArm
LeftHandThumb1	LeftHand
LeftHandThumb2	LeftHandThumb1
LeftHandThumb3	LeftHandThumb2
LeftHandThumb4	LeftHandThumb3
LeftHandIndex1	LeftHand
LeftHandIndex2	LeftHandIndex1
LeftHandIndex3	LeftHandIndex2
LeftHandIndex4	LeftHandIndex3
LeftHandMiddle1	LeftHand
LeftHandMiddle2	LeftHandMiddle1
LeftHandMiddle3	LeftHandMiddle2
LeftHandMiddle4	LeftHandMiddle3
LeftHandRing1	LeftHand
LeftHandRing2	LeftHandRing1
LeftHandRing3	LeftHandRing2
LeftHandRing4	LeftHandRing3
LeftHandPinky1	LeftHand
LeftHandPinky2	LeftHandPinky1
LeftHandPinky3	LeftHandPinky2
LeftHandPinky4	LeftHandPinky3
RightShoulder	Spine2
RightArm	RightShoulder
RightForeArm	RightArm
RightHand	RightForeArm
RightHandPinky1	RightHand
RightHandPinky2	RightHandPinky1
RightHandPinky3	RightHandPinky2
RightHandPinky4	RightHandPinky3
RightHandRing1	RightHand
RightHandRing2	RightHandRing1
RightHandRing3	RightHandRing2
RightHandRing4	RightHandRing3
RightHandMiddle1	RightHand
RightHandMiddle2	RightHandMiddle1
RightHandMiddle3	RightHandMiddle2
RightHandMiddle4	RightHandMiddle3
RightHandIndex1	RightHand
RightHandIndex2	RightHandIndex1
RightHandIndex3	RightHandIndex2
RightHandIndex4	RightHandIndex3
RightHandThumb1	RightHand
RightHandThumb2	RightHandThumb1
RightHandThumb3	RightHandThumb2
RightHandThumb4	RightHandThumb3
LeftUpLeg	Hips
LeftLeg	LeftUpLeg
LeftFoot	LeftLeg
LeftToeBase	LeftFoot
RightUpLeg	Hips
RightLeg	RightUpLeg
RightFoot	RightLeg
RightToeBase	RightFoot
[BasePosition]
Hips	0	0	0	0	0	0	1
Spine	0	0	0	0	0	0	1
Spine1	0	0	0	0	0	0	1
Spine2	0	0	0	0	0	0	1
Neck	0	0	0	0	0	0	1
Head	0	0	0	0	0	0	1
LeftEye	0	0	0	0	0	0	1
RightEye	0	0	0	0	0	0	1
LeftShoulder	0	0	0	0	0	0	1
LeftArm	0	0	0	0	0	0	1
LeftForeArm	0	0	0	0	0	0	1
LeftHand	0	0	0	0	0	0	1
LeftHandThumb1	0	0	0	0	0	0	1
LeftHandThumb2	0	0	0	0	0	0	1
LeftHandThumb3	0	0	0	0	0	0	1
LeftHandThumb4	0	0	0	0	0	0	1
LeftHandIndex1	0	0	0	0	0	0	1
LeftHandIndex2	0	0	0	0	0	0	1
LeftHandIndex3	0	0	0	0	0	0	1
LeftHandIndex4	0	0	0	0	0	0	1
LeftHandMiddle1	0	0	0	0	0	0	1
LeftHandMiddle2	0	0	0	0	0	0	1
LeftHandMiddle3	0	0	0	0	0	0	1
LeftHandMiddle4	0	0	0	0	0	0	1
LeftHandRing1	0	0	0	0	0	0	1
LeftHandRing2	0	0	0	0	0	0	1
LeftHandRing3	0	0	0	0	0	0	1
LeftHandRing4	0	0	0	0	0	0	1
LeftHandPinky1	0	0	0	0	0	0	1
LeftHandPinky2	0	0	0	0	0	0	1
LeftHandPinky3	0	0	0	0	0	0	1
LeftHandPinky4	0	0	0	0	0	0	1
RightShoulder	0	0	0	0	0	0	1
RightArm	0	0	0	0	0	0	1
RightForeArm	0	0	0	0	0	0	1
RightHand	0	0	0	0	0	0	1
RightHandPinky1	0	0	0	0	0	0	1
RightHandPinky2	0	0	0	0	0	0	1
RightHandPinky3	0	0	0	0	0	0	1
RightHandPinky4	0	0	0	0	0	0	1
RightHandRing1	0	0	0	0	0	0	1
RightHandRing2	0	0	0	0	0	0	1
RightHandRing3	0	0	0	0	0	0	1
RightHandRing4	0	0	0	0	0	0	1
RightHandMiddle1	0	0	0	0	0	0	1
RightHandMiddle2	0	0	0	0	0	0	1
RightHandMiddle3	0	0	0	0	0	0	1
RightHandMiddle4	0	0	0	0	0	0	1
RightHandIndex1	0	0	0	0	0	0	1
RightHandIndex2	0	0	0	0	0	0	1
RightHandIndex3	0	0	0	0	0	0	1
RightHandIndex4	0	0	0	0	0	0	1
RightHandThumb1	0	0	0	0	0	0	1
RightHandThumb2	0	0	0	0	0	0	1
RightHandThumb3	0	0	0	0	0	0	1
RightHandThumb4	0	0	0	0	0	0	1
LeftUpLeg	0	0	0	0	0	0	1
LeftLeg	0	0	0	0	0	0	1
LeftFoot	0	0	0	0	0	0	1
LeftToeBase	0	0	0	0	0	0	1
RightUpLeg	0	0	0	0	0	0	1
RightLeg	0	0	0	0	0	0	1
RightFoot	0	0	0	0	0	0	1
RightToeBase	0	0	0	0	0	0	1
[Hips]
9	456.8892212	939.4117432	19.932724	1.008099198	60.46540833	-6.489074707	1.0
10	525.2504883	937.2563477	15.40363693	2.567628384	60.80220413	-4.097465515	1.0
11	588.3561401	930.0678101	10.94202995	5.151359081	60.92320633	-1.398185253	1.0
[Spine]
9	0	101.8159943	1.315000057	5.883971214	-1.375671744	-0.03958495706	1.0
10	0	101.8159943	1.315000057	5.647825718	-1.972953796	-0.7504930496	1.0
11	0	101.8159943	1.315000057	5.314826012	-2.354575157	-1.942830324	1.0
[Spine1]
9	0	100.8349991	-10.00800037	4.147153378	-3.087877274	0.2642570436	1.0
10	0	100.8349991	-10.00800037	4.078215599	-3.233029604	-0.09960608929	1.0
11	0	100.8349991	-10.00800037	3.934716463	-3.465135813	-0.4663604796	1.0
[Spine2]
9	0	91	-13.73399925	4.141313553	-3.097365618	0.2501342595	1.0
10	0	91	-13.73399925	4.071185589	-3.24338913	-0.121253863	1.0
11	0	91	-13.73399925	3.912035465	-3.491234541	-0.500336647	1.0
[Neck]
9	0	166.7169952	-25.16200066	3.975955963	-6.184961796	-1.261427999	1.0
10	0	166.7169952	-25.16200066	4.123775482	-6.107060909	-1.265217423	1.0
11	0	166.7169952	-25.16200066	4.038660526	-6.028061867	-1.282512307	1.0
[Head]
9	0	96.17900085	16.84999847	-15.54639435	-34.79302216	16.22641182	1.0
10	0	96.17900085	16.84999847	-14.18633175	-34.91217804	16.13508797	1.0
11	0	96.17900085	16.84999847	-13.71396923	-34.90789795	16.64676285	1.0
[LeftEye]
9	30.6760006	64.09500122	92.83599854	0	0	0	1.0
10	30.6760006	64.09500122	92.83599854	0	0	0	1.0
11	30.6760006	64.09500122	92.83599854	0	0	0	1.0
[RightEye]
9	-30.6760006	64.09500122	92.83499908	0	0	0	1.0
10	-30.6760006	64.09500122	92.83499908	0	0	0	1.0
11	-30.6760006	64.09500122	92.83499908	0	0	0	1.0
[LeftShoulder]
9	45.70400238	109.4599991	-26.28000069	2.337453127	-3.183985472	-9.678825378	1.0
10	45.70400238	109.4599991	-26.28000069	2.253288269	-2.954691648	-9.81150341	1.0
11	45.70400238	109.4599991	-26.28000069	2.103670359	-3.025467634	-9.968551636	1.0
[LeftArm]
9	105.923996	-5.24600029	-22.32099915	21.93551445	-2.224420547	-62.60543823	1.0
10	105.923996	-5.24600029	-22.32099915	20.57532692	-2.154800177	-64.51952362	1.0
11	105.923996	-5.24600029	-22.32099915	20.02733612	-2.301483631	-65.84555054	1.0
[LeftForeArm]
9	278.414978	-0.0009999999311	0	-1.44981243e-06	-13.38132763	-0.0001998637017	1.0
10	278.414978	-0.0009999999311	0	-1.922340289e-06	-9.994972229	-0.0002096355747	1.0
11	278.414978	-0.0009999999311	0	-3.184908337e-06	-7.825969696	-0.0002039429819	1.0
[LeftHand]
9	283.2879944	0	0	-1.701456189	-1.378796101	2.96942544	1.0
10	283.2879944	0	0	-1.572127938	0.1608682424	3.712435484	1.0
11	283.2879944	0	0	-1.804952979	1.164499164	4.886692047	1.0
[LeftHandThumb1]
9	24.6609993	-15.75	26.8239994	0.9464570284	1.151123047	0.2541034818	1.0
10	24.6609993	-15.75	26.8239994	0.9464570284	1.151123047	0.2541034818	1.0
11	24.6609993	-15.75	26.8239994	0.9464570284	1.151123047	0.2541034818	1.0
[LeftHandThumb2]
9	32.29800034	-18.64699936	18.64699936	16.70211983	2.057473421	16.86015129	1.0
10	32.29800034	-18.64699936	18.64699936	16.72812462	2.233066082	16.97085762	1.0
11	32.29800034	-18.64699936	18.64699936	16.68732071	1.829166889	16.96038246	1.0
[LeftHandThumb3]
9	26.52600098	-15.31499958	15.31499958	-4.667304516	-16.94431114	23.60510063	1.0
10	26.52600098	-15.31499958	15.31499958	-4.634817123	-16.85375214	23.61935425	1.0
11	26.52600098	-15.31499958	15.31499958	-4.228540421	-15.88260937	23.21227646	1.0
[LeftHandThumb4]
9	19.54599953	-11.28499985	11.28499985	0	0	0	1.0
10	19.54599953	-11.28499985	11.28499985	0	0	0	1.0
11	19.54599953	-11.28499985	11.28499985	0	0	0	1.0
[LeftHandIndex1]
9	91.09299469	-5.170999527	22.60099792	-1.476426125	1.652310967	-29.14095688	1.0
10	91.09299469	-5.170999527	22.60099792	-1.480318785	1.387930989	-28.79005432	1.0
11	91.09299469	-5.170999527	22.60099792	-1.486647606	0.754430294	-27.91223335	1.0
[LeftHandIndex2]
9	36.76399994	0	0	-0.1294315308	1.223133922	-12.08015919	1.0
10	36.76399994	0	0	-0.1291581988	1.221850634	-12.06733704	1.0
11	36.76399994	0	0	-0.1288352609	1.220364451	-12.0524559	1.0
[LeftHandIndex3]
9	28.83100128	0	0	-0.1346463114	1.247267246	-12.32227516	1.0
10	28.83100128	0	0	-0.1343693137	1.245983005	-12.30938339	1.0
11	28.83100128	0	0	-0.1340482235	1.244488835	-12.29441452	1.0
[LeftHandIndex4]
9	23.92700005	0	0	0	0	0	1.0
10	23.92700005	0	0	0	0	0	1.0
11	23.92700005	0	0	0	0	0	1.0
[LeftHandMiddle1]
9	95.33399963	0	0	-2.24392128	4.980978489	-33.8054657	1.0
10	95.33399963	0	0	-2.210622549	4.928962231	-33.43946457	1.0
11	95.33399963	0	0	-2.142454147	4.632851124	-32.68815994	1.0
[LeftHandMiddle2]
9	36.98199844	0	0	-0.3039308786	1.859883547	-18.55973816	1.0
10	36.98199844	0	0	-0.3040345609	1.860197425	-18.56298637	1.0
11	36.98199844	0	0	-0.3042063713	1.860735297	-18.56848526	1.0
[LeftHandMiddle3]
9	29.50900078	0	0	-0.1096821204	1.126949787	-11.11734104	1.0
10	29.50900078	0	0	-0.1097419336	1.127280354	-11.12061501	1.0
11	29.50900078	0	0	-0.1098572463	1.127838254	-11.1261797	1.0
[LeftHandMiddle4]
9	28.3390007	0	0	0	0	0	1.0
10	28.3390007	0	0	0	0	0	1.0
11	28.3390007	0	0	0	0	0	1.0
[LeftHandRing1]
9	91.04499817	-0.4390000105	-18.65100098	-2.399157286	7.955608845	-35.52664566	1.0
10	91.04499817	-0.4390000105	-18.65100098	-2.380918741	7.913850307	-35.3293457	1.0
11	91.04499817	-0.4390000105	-18.65100098	-2.324039698	7.730587482	-34.71203613	1.0
[LeftHandRing2]
9	31.54000092	0	0	-0.4638084471	2.281165123	-22.98296547	1.0
10	31.54000092	0	0	-0.4633996189	2.280189753	-22.97255707	1.0
11	31.54000092	0	0	-0.4632232785	2.279761553	-22.96805	1.0
[LeftHandRing3]
9	29.37700081	0	0	-0.3325511217	1.943031788	-19.4225502	1.0
10	29.37700081	0	0	-0.3322034776	1.942054033	-19.41234207	1.0
11	29.37700081	0	0	-0.3320910633	1.941718817	-19.40892029	1.0
[LeftHandRing4]
9	26.47500038	0	0	0	0	0	1.0
10	26.47500038	0	0	0	0	0	1.0
11	26.47500038	0	0	0	0	0	1.0
[LeftHandPinky1]
9	80.77799988	-4.887000084	-38.06099701	-2.628340006	4.67673111	-37.89453506	1.0
10	80.77799988	-4.887000084	-38.06099701	-2.628041029	4.777545452	-37.89038849	1.0
11	80.77799988	-4.887000084	-38.06099701	-2.609204292	4.739758968	-37.69332123	1.0
[LeftHandPinky2]
9	36	0	0	-0.4845884144	2.329490662	-23.49937057	1.0
10	36	0	0	-0.4849282801	2.330272436	-23.50774956	1.0
11	36	0	0	-0.4854299426	2.331409454	-23.52001381	1.0
[LeftHandPinky3]
9	21.14200211	0	0	-0.2082301527	1.546056867	-15.34063721	1.0
10	21.14200211	0	0	-0.2084888071	1.546985269	-15.35008526	1.0
11	21.14200211	0	0	-0.2088595629	1.548359394	-15.36398792	1.0
[LeftHandPinky4]
9	19.75699997	0	0	0	0	0	1.0
10	19.75699997	0	0	0	0	0	1.0
11	19.75699997	0	0	0	0	0	1.0
[RightShoulder]
9	-45.70000076	109.4620056	-26.28000069	-0.01821969636	5.122010231	9.529999733	1.0
10	-45.70000076	109.4620056	-26.28000069	-0.03827250749	5.244383335	9.361452103	1.0
11	-45.70000076	109.4620056	-26.28000069	-0.003297374817	5.23630619	9.139247894	1.0
[RightArm]
9	-105.9280014	-5.248000145	-22.32099915	14.59807205	14.96877766	64.80827332	1.0
10	-105.9280014	-5.248000145	-22.32099915	14.6452179	15.43165684	66.05544281	1.0
11	-105.9280014	-5.248000145	-22.32099915	14.7929039	15.6407938	67.3706665	1.0
[RightForeArm]
9	-278.414978	0	0	2.212429763e-06	27.91306686	-1.936977242e-06	1.0
10	-278.414978	0	0	8.904866263e-06	29.8978157	4.706808738e-07	1.0
11	-278.414978	0	0	2.349623401e-06	31.8881588	8.19082743e-06	1.0
[RightHand]
9	-283.2879944	0	0.0009999999311	7.589590073	11.31225681	1.127180576	1.0
10	-283.2879944	0	0.0009999999311	8.772974968	12.7477417	-0.2296008915	1.0
11	-283.2879944	0	0.0009999999311	9.541453362	15.05604553	-1.641006827	1.0
[RightHandPinky1]
9	-80.76699829	-4.885000229	-38.06000137	-1.743585348	-1.183805823	30.17786598	1.0
10	-80.76699829	-4.885000229	-38.06000137	-1.712696791	-1.664959908	29.74946213	1.0
11	-80.76699829	-4.885000229	-38.06000137	-1.664979219	-2.181338072	29.09614372	1.0
[RightHandPinky2]
9	-36	0	0.0009999999311	-0.3878093958	-1.856711268	23.61297226	1.0
10	-36	0	0.0009999999311	-0.3831906915	-1.846121788	23.47012711	1.0
11	-36	0	0.0009999999311	-0.3801015913	-1.839008927	23.37423325	1.0
[RightHandPinky3]
9	-21.14200211	0	0	-0.4444523752	-1.981303811	25.2846756	1.0
10	-21.14200211	0	0	-0.4387731552	-1.969247818	25.11984253	1.0
11	-21.14200211	0	0	-0.4320296943	-1.954783916	24.92277145	1.0
[RightHandPinky4]
9	-19.75699997	0	0	0	0	0	1.0
10	-19.75699997	0	0	0	0	0	1.0
11	-19.75699997	0	0	0	0	0	1.0
[RightHandRing1]
9	-91.03599548	-0.4390000105	-18.65100098	-2.064856529	-1.974373579	34.51331711	1.0
10	-91.03599548	-0.4390000105	-18.65100098	-1.965746045	-2.314296246	33.24078369	1.0
11	-91.03599548	-0.4390000105	-18.65100098	-1.856506109	-2.688707113	31.82197762	1.0
[RightHandRing2]
9	-31.54000092	0	0	-0.6850184202	-2.425708771	31.53542328	1.0
10	-31.54000092	0	0	-0.6855301261	-2.426546335	31.54754066	1.0
11	-31.54000092	0	0	-0.6821601391	-2.421032667	31.46746063	1.0
[RightHandRing3]
9	-29.37700081	0	0	-0.761936307	-2.546688557	33.3082962	1.0
10	-29.37700081	0	0	-0.7625132203	-2.547580242	33.32124329	1.0
11	-29.37700081	0	0	-0.7589080334	-2.542100668	33.2401886	1.0
[RightHandRing4]
9	-26.47500038	0	0	0	0	0	1.0
10	-26.47500038	0	0	0	0	0	1.0
11	-26.47500038	0	0	0	0	0	1.0
[RightHandMiddle1]
9	-95.32500458	0	0	-2.305323362	-1.326868415	37.53388596	1.0
10	-95.32500458	0	0	-2.222846031	-1.314451218	36.51271439	1.0
11	-95.32500458	0	0	-2.104628563	-1.459953547	35.03005219	1.0
[RightHandMiddle2]
9	-36.98199844	0	0	-0.4432321191	-1.978695393	25.24918747	1.0
10	-36.98199844	0	0	-0.4413142502	-1.974630475	25.1937027	1.0
11	-36.98199844	0	0	-0.4388611913	-1.969464064	25.12298012	1.0
[RightHandMiddle3]
9	-29.50900078	0	0	-0.3095768392	-1.668296695	21.04876709	1.0
10	-29.50900078	0	0	-0.3079439402	-1.664063692	20.9927063	1.0
11	-29.50900078	0	0	-0.3058808446	-1.658668756	20.92137146	1.0
[RightHandMiddle4]
9	-28.3390007	0	0.0009999999311	0	0	0	1.0
10	-28.3390007	0	0.0009999999311	0	0	0	1.0
11	-28.3390007	0	0.0009999999311	0	0	0	1.0
[RightHandIndex1]
9	-91.08300018	-5.167999744	22.60099792	-1.424510717	6.459749222	27.02635765	1.0
10	-91.08300018	-5.167999744	22.60099792	-1.261178732	6.580583096	24.84864616	1.0
11	-91.08300018	-5.167999744	22.60099792	-1.08749795	6.613424301	22.58551025	1.0
[RightHandIndex2]
9	-36.76399994	0	0	-0.5699048042	-2.227447987	28.70040703	1.0
10	-36.76399994	0	0	-0.5705102086	-2.228581905	28.71633148	1.0
11	-36.76399994	0	0	-0.5691100955	-2.226002693	28.68000793	1.0
[RightHandIndex3]
9	-28.83100128	0	0	-0.2344355434	-1.456161141	18.291399	1.0
10	-28.83100128	0	0	-0.2348395735	-1.457388759	18.30747986	1.0
11	-28.83100128	0	0	-0.233920753	-1.454557896	18.27078629	1.0
[RightHandIndex4]
9	-23.92700005	0	0	0	0	0	1.0
10	-23.92700005	0	0	0	0	0	1.0
11	-23.92700005	0	0	0	0	0	1.0
[RightHandThumb1]
9	-24.64799881	-15.72700024	26.82600021	30.15343666	21.14214134	-10.25145817	1.0
10	-24.64799881	-15.72700024	26.82600021	30.15343666	21.14214134	-10.25145817	1.0
11	-24.64799881	-15.72700024	26.82600021	30.15343666	21.14214134	-10.25145817	1.0
[RightHandThumb2]
9	-32.29800034	-18.64699936	18.64699936	12.91639042	-18.24209404	1.973409534	1.0
10	-32.29800034	-18.64699936	18.64699936	12.08786297	-18.40215111	1.569309592	1.0
11	-32.29800034	-18.64699936	18.64699936	11.62697887	-18.85843658	1.275084734	1.0
[RightHandThumb3]
9	-26.52600098	-15.31399918	15.31399918	-11.97566223	-13.37373257	-10.41209984	1.0
10	-26.52600098	-15.31399918	15.31399918	-11.93846512	-13.46192074	-10.3875761	1.0
11	-26.52600098	-15.31399918	15.31399918	-11.9055748	-13.53718281	-10.36679173	1.0
[RightHandThumb4]
9	-19.54599953	-11.28499985	11.28499985	0	0	0	1.0
10	-19.54599953	-11.28499985	11.28499985	0	0	0	1.0
11	-19.54599953	-11.28499985	11.28499985	0	0	0	1.0
[LeftUpLeg]
9	82.07800293	-67.51699829	-15.99599934	-42.18503189	14.09852886	8.88199234	1.0
10	82.07800293	-67.51699829	-15.99599934	-43.87898254	11.59983063	6.43894434	1.0
11	82.07800293	-67.51699829	-15.99599934	-46.51282883	9.437281609	4.334689617	1.0
[LeftLeg]
9	0	-443.7049866	2.845999956	16.33082962	1.639837623	0.3969830275	1.0
10	0	-443.7049866	2.845999956	24.74905014	-1.422815561	-0.3535844386	1.0
11	0	-443.7049866	2.845999956	35.67657089	-1.081319809	-0.6055476069	1.0
[LeftFoot]
9	0	-444.2789917	-29.8219986	-0.4469851553	0.2465567738	-8.144561768	1.0
10	0	-444.2789917	-29.8219986	10.56840897	1.109905958	-5.929763317	1.0
11	0	-444.2789917	-29.8219986	5.016088486	0.7041072249	-4.829013348	1.0
[LeftToeBase]
9	0	-87.28699493	107.1060028	-10.13933372	3.056262813e-06	1.019725346e-06	1.0
10	0	-87.28699493	107.1060028	-11.65203285	1.157412316e-05	5.447188869e-06	1.0
11	0	-87.28699493	107.1060028	-9.353415489	1.274599799e-05	-4.621756489e-06	1.0
[RightUpLeg]
9	-82.07800293	-67.51699829	-15.99599934	5.724415302	-4.857181549	-12.43766308	1.0
10	-82.07800293	-67.51699829	-15.99599934	6.745883942	-10.87680149	-18.22843361	1.0
11	-82.07800293	-67.51699829	-15.99599934	3.715498209	-6.819907188	-20.35415649	1.0
[RightLeg]
9	0	-443.7049866	2.861999989	17.48307419	9.356963158	3.393289328	1.0
10	0	-443.7049866	2.861999989	22.53660774	8.773328781	4.720829964	1.0
11	0	-443.7049866	2.861999989	31.7644043	8.286962509	5.886964798	1.0
[RightFoot]
9	0	-444.2770081	-29.83799934	-24.36977386	9.794780731	5.684220791	1.0
10	0	-444.2770081	-29.83799934	-12.05955601	14.61964607	5.13483572	1.0
11	0	-444.2770081	-29.83799934	-2.189994574	8.234920502	6.84053421	1.0
[RightToeBase]
9	0	-87.28699493	107.1060028	-10.26795006	-0.01769272983	0.0117353173	1.0
10	0	-87.28699493	107.1060028	-20.77615929	0.4112864733	1.022770047	1.0
11	0	-87.28699493	107.1060028	-27.22251892	1.65652132	3.677571058	1.0
[EndOfFile]
